<svg height="511pt" viewBox="0 1 511.99764 511" width="511pt" xmlns="http://www.w3.org/2000/svg"><path d="m501.207031 84.679688-73.398437-73.386719c-3.9375-3.9375-10.386719-3.9375-14.328125 0l-40.71875 40.710937 87.726562 87.714844 40.71875-40.714844c3.9375-3.9375 3.941407-10.382812 0-14.324218zm0 0" fill="#76ffd9"/><path d="m394.804688 74.046875 40.808593-40.800781c3.433594-3.433594 8.738281-3.910156 12.703125-1.445313l-20.507812-20.507812c-3.941406-3.9375-10.386719-3.9375-14.328125 0l-40.71875 40.714843zm0 0" fill="#5de0bf"/><path d="m325.335938 99.421875-290.066407 290.019531 87.726563 87.710938 290.066406-290.019532zm0 0" fill="#ffc843"/><path d="m383.820312 157.898438-290.070312 290.015624 29.246094 29.238282 290.066406-290.019532zm0 0" fill="#ffc843"/><path d="m325.335938 99.421875-290.066407 290.019531 29.238281 29.234375 290.070313-290.015625zm0 0" fill="#ffa816"/><path d="m135.167969 432.085938c-5.519531-5.519532-13.398438-7.890626-21.070313-6.339844 1.550782-7.671875-.820312-15.546875-6.34375-21.070313-5.519531-5.515625-13.398437-7.890625-21.070312-6.339843 1.550781-7.671876-.820313-15.546876-6.34375-21.066407-8.921875-8.921875-23.554688-9.03125-32.605469-.261719l-.742187.710938-17.679688 17.679688c-.722656.722656-1.21875 1.644531-1.417969 2.644531l-11.28125 56.730469 41.039063 41.027343 56.738281-11.277343c1-.199219 1.921875-.691407 2.644531-1.414063l17.53125-17.53125c.023438-.015625.851563-.871094.851563-.871094 8.785156-9.066406 8.671875-23.699219-.25-32.621093zm0 0" fill="#fff"/><path d="m16.613281 454.769531-8.675781 43.628907c-.335938 1.691406.195312 3.441406 1.417969 4.664062 1.21875 1.21875 2.96875 1.75 4.660156 1.414062l43.636719-8.675781zm0 0" fill="#adb5bd"/><path d="m46.992188 377.71875-17.683594 17.679688 17.6875-17.683594zm0 0" fill="#fff"/><path d="m16.613281 454.773438 11.28125-56.730469zm0 0" fill="#fff"/><path d="m7.9375 498.398438c-.335938 1.691406.195312 3.441406 1.417969 4.664062 1.21875 1.21875 2.96875 1.75 4.660156 1.414062l12.550781-2.496093 6.183594-31.078125-16.136719-16.128906zm0 0" fill="#969ba1"/><path d="m77.863281 375.15625 261.625-261.582031-14.152343-14.152344-278.339844 278.292969.738281-.710938c8.257813-8 21.152344-8.582031 30.128906-1.847656zm0 0" fill="#ff8025"/><path d="m46.429688 406.582031 31.433593-31.425781c-8.976562-6.734375-21.871093-6.152344-30.128906 1.851562l-.738281.707032-17.683594 17.683594c-.722656.722656-1.21875 1.644531-1.417969 2.644531l-11.28125 56.730469 16.132813 16.128906 12.269531-61.671875c.195313-1.003907.691406-1.925781 1.414063-2.648438zm0 0" fill="#e1eaf8"/><path d="m325.734375 82.964844c4.285156-4.285156 11.296875-4.285156 15.585937 0l88.203126 88.191406c4.289062 4.285156 4.285156 11.296875 0 15.582031l-.636719.636719c-4.289063 4.285156-11.296875 4.285156-15.585938 0l-88.203125-88.191406c-4.289062-4.285156-4.289062-11.296875 0-15.582032zm0 0" fill="#c1c8d2"/><path d="m445.125 155.554688-88.203125-88.1875c-4.289063-4.285157-11.296875-4.285157-15.585937-.003907l-.636719.636719c-3.539063 3.539062-4.148438 8.9375-1.84375 13.121094.882812.488281 1.71875 1.09375 2.464843 1.839844l88.203126 88.191406c.746093.746094 1.355468 1.578125 1.839843 2.460937 4.1875 2.308594 9.585938 1.699219 13.125-1.839843l.636719-.636719c4.285156-4.285157 4.285156-11.296875 0-15.582031zm0 0" fill="#e1eaf8"/><path d="m325.734375 82.964844c4.285156-4.285156 11.296875-4.285156 15.585937 0l88.203126 88.191406c4.289062 4.285156 4.285156 11.296875 0 15.582031l-.636719.636719c-4.289063 4.285156-11.296875 4.285156-15.585938 0l-88.203125-88.191406c-4.289062-4.285156-4.289062-11.296875 0-15.582032zm0 0" fill="#e1eaf8"/><path d="m460.726562 139.957031-88.203124-88.191406c-4.289063-4.285156-11.300782-4.285156-15.585938 0l-.640625.640625c-3.539063 3.539062-4.144531 8.933594-1.835937 13.121094.882812.484375 1.714843 1.09375 2.460937 1.839844l88.199219 88.191406c.746094.742187 1.351562 1.574218 1.839844 2.457031 4.1875 2.308594 9.585937 1.703125 13.128906-1.839844l.636718-.636719c4.289063-4.285156 4.289063-11.296874 0-15.582031zm0 0" fill="#d8e0ea"/><path d="m346.359375 104.867188.636719-.640626c3.542968-3.535156 8.9375-4.144531 13.125-1.839843-2.304688-4.183594-1.699219-9.578125 1.839844-13.121094l.640624-.636719c3.542969-3.539062 8.933594-4.144531 13.125-1.839844-2.308593-4.1875-1.703124-9.582031 1.835938-13.121093l.640625-.636719c4.289063-4.285156 11.300781-4.285156 15.585937 0l-21.265624-21.265625c-4.289063-4.285156-11.300782-4.285156-15.585938 0l-.640625.636719c-3.539063 3.539062-4.144531 8.933594-1.835937 13.121094-4.191407-2.304688-9.582032-1.699219-13.125 1.839843l-.640626.636719c-3.539062 3.539062-4.144531 8.933594-1.839843 13.121094-4.1875-2.304688-9.582031-1.699219-13.125 1.839844l-.636719.640624c-4.285156 4.285157-4.285156 11.296876 0 15.578126l21.230469 21.230468c-4.246094-4.285156-4.238281-11.269531.035156-15.542968zm0 0" fill="#adb5bd"/><g fill="#434c54"><path d="m343.042969 198.664062c-3.058594-3.058593-8.023438-3.0625-11.082031 0l-222.574219 222.542969c-3.058594 3.058594-3.058594 8.019531 0 11.082031 3.0625 3.058594 8.023437 3.058594 11.085937 0l222.570313-222.542968c3.0625-3.058594 3.0625-8.019532 0-11.082032zm0 0"/><path d="m506.75 79.140625-73.402344-73.390625c-7.003906-7-18.398437-7-25.40625 0l-36.285156 36.277344c-6.777344-2.664063-14.792969-1.269532-20.257812 4.195312l-.640626.640625c-2.703124 2.703125-4.476562 6.09375-5.171874 9.78125-3.589844.683594-7.015626 2.40625-9.785157 5.175781l-.644531.640626c-2.773438 2.773437-4.496094 6.203124-5.175781 9.789062-3.691407.695312-7.085938 2.46875-9.800781 5.183594l-.625.625c-3.550782 3.554687-5.507813 8.289062-5.507813 13.335937 0 2.410157.457031 4.746094 1.3125 6.921875l-291.59375 291.546875c-1.828125 1.828125-3.058594 4.132813-3.554687 6.652344l-19.960938 100.355469c-1.136719 5.707031 1.632812 11.628906 7.261719 14.351562 1.707031.828125 3.601562 1.1875 5.496093 1.1875.851563 0 1.699219-.082031 2.535157-.25l100.378906-19.953125c2.535156-.503906 4.839844-1.738281 6.65625-3.558593l79.335937-79.320313c3.058594-3.0625 3.058594-8.023437 0-11.082031-3.0625-3.0625-8.023437-3.0625-11.082031 0l-78.765625 78.746094-95.664062 19.019531 19.019531-95.644531 289.914063-289.863282 18.15625 18.15625-263.34375 263.304688c-3.0625 3.058594-3.0625 8.023437 0 11.082031 3.058593 3.0625 8.023437 3.0625 11.082031 0l263.347656-263.304687 18.15625 18.152343-19.640625 19.640625c-3.125 3.125-3.296875 8.410156-.09375 11.457032 1.511719 1.4375 3.453125 2.15625 5.398438 2.15625 2.007812 0 4.011718-.765626 5.542968-2.296876l19.878906-19.875 18.15625 18.15625-188.089843 188.058594c-3.058594 3.0625-3.058594 8.023438 0 11.082032 3.0625 3.0625 8.023437 3.0625 11.082031.003906l189.199219-189.167969c2.175781.855469 4.511719 1.316406 6.925781 1.316406 5.042969 0 9.777344-1.957031 13.324219-5.503906l.648437-.644531c2.703125-2.703125 4.476563-6.097656 5.171875-9.785156 3.589844-.679688 7.019531-2.40625 9.792969-5.179688l.632812-.632812c2.699219-2.699219 4.472657-6.085938 5.171876-9.769532 3.621093-.691406 7.046874-2.445312 9.804687-5.203125l.625-.628906c3.554687-3.550781 5.511719-8.285156 5.511719-13.332031 0-2.410156-.460938-4.746094-1.316406-6.921875l10.789062-10.785157c3.03125-3.03125 3.339844-8.015624.398438-11.136718-3.042969-3.234375-8.132813-3.296875-11.25-.175782l-9.910157 9.910157-76.644531-76.632813 35.175781-35.171875c.882813-.878906 2.367188-.878906 3.246094 0l73.398437 73.390625c.574219.570313.660157 1.257813.660157 1.617188s-.085938 1.046875-.660157 1.621094l-3.605468 3.605468c-3.035156 3.03125-3.339844 8.015625-.398438 11.140625 3.042969 3.230469 8.132813 3.289063 11.25.171875l3.839844-3.835937c3.382812-3.386719 5.246094-7.894531 5.246094-12.703125.003906-4.804688-1.863282-9.316406-5.246094-12.699219zm-82.761719 102.046875-.644531.644531c-.800781.800781-1.753906.917969-2.25.917969s-1.449219-.117188-2.25-.917969l-88.207031-88.191406c-.796875-.796875-.917969-1.75-.917969-2.246094 0-.496093.121094-1.449219.929688-2.261719l.625-.625c.800781-.800781 1.753906-.921874 2.253906-.921874.078125 0 .167968.003906.265625.015624.425781.527344.875 1.039063 1.363281 1.527344l88.207031 88.1875c.488281.488282 1 .941406 1.527344 1.363282.007813.097656.011719.1875.011719.265624 0 .496094-.121094 1.449219-.914063 2.242188zm31.199219-35.6875c.800781.800781.917969 1.75.917969 2.246094s-.117188 1.449218-.929688 2.261718l-.625.625c-.671875.671876-1.609375.976563-2.53125.902344-.425781-.527344-.871093-1.035156-1.355469-1.519531l-17.761718-17.761719c-3.0625-3.058594-8.023438-3.058594-11.085938 0-3.058594 3.0625-3.058594 8.023438.003906 11.082032l17.761719 17.761718c.800781.800782.917969 1.75.917969 2.246094s-.117188 1.449219-.925781 2.253906l-.628907.632813c-1.222656 1.21875-3.285156 1.21875-4.503906 0l-88.203125-88.1875c-1.222656-1.21875-1.222656-3.28125-.007812-4.496094l.644531-.640625c1.21875-1.21875 3.28125-1.21875 4.503906 0l49.539063 49.53125c3.0625 3.0625 8.023437 3.0625 11.082031 0 3.0625-3.058594 3.0625-8.023438 0-11.082031l-49.542969-49.53125c-.488281-.492188-1-.941407-1.527343-1.367188-.007813-.09375-.011719-.1875-.011719-.261719 0-.5.121093-1.453124.914062-2.246093l.640625-.640625c1.222656-1.21875 3.285156-1.222656 4.507813 0zm0 0"/></g></svg>