<svg height="511pt" viewBox="-37 1 511 511.99896" width="511pt" xmlns="http://www.w3.org/2000/svg"><path d="m419.347656 7.835938h-344.773437c-5.746094 0-10.449219 4.703124-10.449219 10.449218v46.464844h299.429688c5.75 0 10.449218 4.703125 10.449218 10.449219v372.050781h45.34375c5.746094 0 10.449219-4.703125 10.449219-10.449219v-418.515625c0-5.746094-4.703125-10.449218-10.449219-10.449218zm0 0" fill="#76ffd9"/><path d="m363.554688 504.164062c5.75 0 10.449218-4.703124 10.449218-10.449218v-418.515625c0-5.746094-4.699218-10.449219-10.449218-10.449219h-344.769532c-5.746094 0-10.449218 4.703125-10.449218 10.449219v310.988281c0 5.746094 3.324218 13.777344 7.382812 17.839844l92.613281 92.742187c4.0625 4.066407 12.085938 7.394531 17.832031 7.394531zm0 0" fill="#fff"/><path d="m18.785156 396.636719h37.792969c-1.5625-3.488281-2.5625-7.308594-2.5625-10.449219v-310.988281c0-5.746094 4.703125-10.449219 10.449219-10.449219h-45.679688c-5.746094 0-10.449218 4.703125-10.449218 10.449219v310.988281c0 5.746094 3.324218 13.777344 7.382812 17.839844-4.058594-4.066406-2.679688-7.390625 3.066406-7.390625zm0 0" fill="#e1eaf8"/><path d="m115.714844 407.082031c0-5.746093-4.699219-10.445312-10.449219-10.445312h-86.480469c-5.746094 0-7.125 3.328125-3.066406 7.390625l92.613281 92.742187c4.0625 4.066407 7.382813 2.691407 7.382813-3.054687zm0 0" fill="#ffc843"/><path d="m429.796875 349.519531c4.328125 0 7.835937-3.507812 7.835937-7.839843v-323.394532c0-10.082031-8.203124-18.285156-18.285156-18.285156h-344.773437c-10.082031 0-18.285157 8.203125-18.285157 18.285156v38.628906h-37.503906c-10.082031 0-18.285156 8.203126-18.285156 18.285157v310.988281c0 7.804688 4.15625 17.855469 9.675781 23.378906l38.957031 39.011719c1.53125 1.53125 3.539063 2.296875 5.546876 2.296875 2.003906 0 4.007812-.761719 5.535156-2.289062 3.0625-3.058594 3.066406-8.019532.007812-11.085938l-32.984375-33.027344h78.03125c1.414063 0 2.609375 1.195313 2.609375 2.609375v78.140625l-19.484375-19.511718c-3.0625-3.0625-8.019531-3.066407-11.082031-.007813s-3.066406 8.019531-.011719 11.082031l25.484375 25.519532c5.519532 5.527343 15.570313 9.695312 23.378906 9.695312h237.390626c10.085937 0 18.289062-8.203125 18.289062-18.285156v-38.628906h37.503906c10.082032 0 18.285156-8.203126 18.285156-18.285157v-53.324219c0-4.328124-3.507812-7.835937-7.835937-7.835937-4.332031 0-7.835937 3.507813-7.835937 7.835937v53.324219c0 1.417969-1.199219 2.613281-2.613282 2.613281h-37.503906v-301.488281c0-4.328125-3.507812-7.835937-7.839844-7.835937-4.328125 0-7.835937 3.507812-7.835937 7.835937v355.789063c0 1.414062-1.195313 2.613281-2.613281 2.613281h-237.390626c-.773437 0-1.667968-.121094-2.609374-.328125v-88.917969c0-10.082031-8.207032-18.285156-18.289063-18.285156h-88.765625c-.207031-.941406-.328125-1.835937-.328125-2.613281v-310.984375c0-1.417969 1.199219-2.613281 2.613281-2.613281h344.769532c1.417968 0 2.613281 1.195312 2.613281 2.613281v25.109375c0 4.332031 3.507812 7.839844 7.835937 7.839844 4.332032 0 7.839844-3.507813 7.839844-7.839844v-25.109375c0-10.082031-8.203125-18.285157-18.289062-18.285157h-291.589844v-38.628906c0-1.414062 1.195312-2.613281 2.609375-2.613281h344.773437c1.414063 0 2.613282 1.199219 2.613282 2.613281v323.394532c0 4.332031 3.503906 7.839843 7.835937 7.839843zm0 0" fill="#434c54"/><g fill="#adb5bd"><path d="m287.808594 142.628906h-182.414063c-4.328125 0-7.835937 3.507813-7.835937 7.835938s3.507812 7.835937 7.835937 7.835937h182.414063c4.328125 0 7.835937-3.507812 7.835937-7.835937s-3.507812-7.835938-7.835937-7.835938zm0 0"/><path d="m287.808594 192.785156h-182.414063c-4.328125 0-7.835937 3.507813-7.835937 7.835938s3.507812 7.835937 7.835937 7.835937h182.414063c4.328125 0 7.835937-3.507812 7.835937-7.835937s-3.507812-7.835938-7.835937-7.835938zm0 0"/><path d="m287.808594 242.9375h-182.414063c-4.328125 0-7.835937 3.507812-7.835937 7.839844 0 4.328125 3.507812 7.835937 7.835937 7.835937h182.414063c4.328125 0 7.835937-3.507812 7.835937-7.835937 0-4.332032-3.507812-7.839844-7.835937-7.839844zm0 0"/><path d="m287.808594 293.09375h-182.414063c-4.328125 0-7.835937 3.507812-7.835937 7.835938 0 4.328124 3.507812 7.835937 7.835937 7.835937h182.414063c4.328125 0 7.835937-3.507813 7.835937-7.835937 0-4.328126-3.507812-7.835938-7.835937-7.835938zm0 0"/><path d="m287.808594 343.25h-182.414063c-4.328125 0-7.835937 3.507812-7.835937 7.835938 0 4.328124 3.507812 7.835937 7.835937 7.835937h182.414063c4.328125 0 7.835937-3.507813 7.835937-7.835937 0-4.328126-3.507812-7.835938-7.835937-7.835938zm0 0"/><path d="m287.808594 393.402344h-112.054688c-4.328125 0-7.835937 3.507812-7.835937 7.839844 0 4.328124 3.507812 7.835937 7.835937 7.835937h112.054688c4.328125 0 7.835937-3.507813 7.835937-7.835937 0-4.332032-3.507812-7.839844-7.835937-7.839844zm0 0"/></g></svg>