<svg height="512pt" viewBox="0 -29 512 512" width="512pt" xmlns="http://www.w3.org/2000/svg"><path d="m212.332031 366.730469h87.335938v43.277343h-87.335938zm0 0" fill="#5de0bf"/><path d="m212.332031 366.730469h28.429688v43.277343h-28.429688zm0 0" fill="#00c395"/><path d="m188.082031 342.347656v19.15625c0 2.875 2.351563 5.226563 5.222657 5.226563h125.390624c2.871094 0 5.222657-2.351563 5.222657-5.226563v-19.15625zm0 0" fill="#76ffd9"/><path d="m219.429688 361.503906v-19.15625h-31.347657v19.15625c0 2.875 2.351563 5.226563 5.222657 5.226563h31.347656c-2.871094 0-5.222656-2.351563-5.222656-5.226563zm0 0" fill="#5de0bf"/><path d="m504.164062 331.898438c0 5.75-4.703124 10.449218-10.449218 10.449218h-475.429688c-5.746094 0-10.449218-4.699218-10.449218-10.449218v-313.613282c0-5.746094 4.703124-10.449218 10.449218-10.449218h475.429688c5.746094 0 10.449218 4.703124 10.449218 10.449218zm0 0" fill="#76ffd9"/><path d="m25.601562 331.898438v-313.613282c0-5.746094 4.699219-10.449218 10.449219-10.449218h-17.765625c-5.746094 0-10.449218 4.703124-10.449218 10.449218v313.613282c0 5.75 4.703124 10.449218 10.449218 10.449218h17.765625c-5.75 0-10.449219-4.699218-10.449219-10.449218zm0 0" fill="#5de0bf"/><path d="m102.953125 318.664062h-56.539063c-3.183593 0-5.789062 2.605469-5.789062 5.789063v17.894531h68.117188v-17.894531c0-3.183594-2.605469-5.789063-5.789063-5.789063zm0 0" fill="#5de0bf"/><path d="m69.328125 318.664062h-22.914063c-3.183593 0-5.789062 2.605469-5.789062 5.789063v17.894531h22.914062v-17.894531c0-3.183594 2.605469-5.789063 5.789063-5.789063zm0 0" fill="#00c395"/><path d="m42.910156 295.707031c-2.875 0-5.226562-2.351562-5.226562-5.226562v-245.871094c0-2.871094 2.351562-5.222656 5.226562-5.222656h426.179688c2.875 0 5.226562 2.351562 5.226562 5.222656v245.875c0 2.871094-2.351562 5.222656-5.226562 5.222656zm0 0" fill="#ffc843"/><path d="m42.910156 295.707031c-2.875 0-5.226562-2.351562-5.226562-5.226562v-245.871094c0-2.871094 2.351562-5.222656 5.226562-5.222656h426.179688c2.875 0 5.226562 2.351562 5.226562 5.222656v245.875c0 2.871094-2.351562 5.222656-5.226562 5.222656zm0 0" fill="#fff"/><path d="m53.289062 290.480469v-245.871094c0-2.871094 2.351563-5.222656 5.226563-5.222656h-15.605469c-2.875 0-5.226562 2.351562-5.226562 5.222656v245.875c0 2.871094 2.351562 5.222656 5.226562 5.222656h15.605469c-2.875 0-5.226563-2.351562-5.226563-5.226562zm0 0" fill="#e1eaf8"/><path d="m310.140625 70.257812h-239.996094c-2.875 0-5.226562 2.351563-5.226562 5.222657v185.714843c0 2.871094 2.351562 5.222657 5.226562 5.222657h240c2.871094 0 5.222657-2.351563 5.222657-5.222657v-185.714843c0-2.871094-2.351563-5.222657-5.226563-5.222657zm0 0" fill="#e1eaf8"/><path d="m93.324219 261.195312v-185.714843c0-2.871094 2.351562-5.222657 5.222656-5.222657h-28.402344c-2.875 0-5.226562 2.351563-5.226562 5.222657v185.714843c0 2.871094 2.351562 5.222657 5.226562 5.222657h28.402344c-2.871094 0-5.222656-2.351563-5.222656-5.222657zm0 0" fill="#c1c8d2"/><path d="m315.367188 99.238281v-23.757812c0-2.871094-2.351563-5.222657-5.226563-5.222657h-239.996094c-2.875 0-5.226562 2.351563-5.226562 5.222657v23.757812zm0 0" fill="#ffc843"/><path d="m103.445312 70.257812h-33.300781c-2.875 0-5.226562 2.351563-5.226562 5.222657v23.757812h38.527343zm0 0" fill="#76ffd9"/><path d="m335.808594 260.3125c0 2.875 2.351562 5.222656 5.222656 5.222656h100.824219c2.875 0 5.226562-2.347656 5.226562-5.222656v-69.753906h-111.273437zm0 0" fill="#ffc843"/><path d="m335.808594 99.238281h111.273437v91.320313h-111.273437zm0 0" fill="#e1eaf8"/><path d="m234.667969 229.4375c0 2.875-2.347657 5.226562-5.222657 5.226562h-78.605468c-2.871094 0-5.222656-2.351562-5.222656-5.226562v-99.492188c0-2.875 2.351562-5.222656 5.222656-5.222656h78.605468c2.875 0 5.222657 2.347656 5.222657 5.222656zm0 0" fill="#fff"/><path d="m168.230469 229.4375v-99.492188c0-2.875 2.347656-5.222656 5.222656-5.222656h-22.613281c-2.871094 0-5.222656 2.347656-5.222656 5.222656v99.492188c0 2.875 2.351562 5.226562 5.222656 5.226562h22.613281c-2.875 0-5.222656-2.351562-5.222656-5.226562zm0 0" fill="#c1c8d2"/><path d="m426.03125 238.480469c0 2.875-2.351562 5.222656-5.226562 5.222656h-58.71875c-2.875 0-5.226563-2.347656-5.226563-5.222656v-22.488281c0-2.875 2.351563-5.226563 5.226563-5.226563h58.71875c2.875 0 5.226562 2.351563 5.226562 5.226563zm0 0" fill="#e1eaf8"/><path d="m379.296875 238.480469v-22.488281c0-2.875 2.351563-5.226563 5.226563-5.226563h-22.4375c-2.875 0-5.226563 2.351563-5.226563 5.226563v22.488281c0 2.875 2.351563 5.222656 5.226563 5.222656h22.4375c-2.875 0-5.226563-2.347656-5.226563-5.222656zm0 0" fill="#c1c8d2"/><path d="m441.855469 70.257812h-100.824219c-2.871094 0-5.222656 2.351563-5.222656 5.222657v23.757812h111.273437v-23.757812c0-2.871094-2.351562-5.222657-5.226562-5.222657zm0 0" fill="#ffc843"/><path d="m375.117188 70.257812h-34.085938c-2.871094 0-5.222656 2.351563-5.222656 5.222657v23.757812h34.085937v-23.757812c0-2.871094 2.351563-5.222657 5.222657-5.222657zm0 0" fill="#ffb400"/><path d="m427.0625 410.007812h-342.125c-2.871094 0-5.222656 2.351563-5.222656 5.222657v25.132812c0 2.875 2.351562 5.226563 5.222656 5.226563h342.125c2.871094 0 5.222656-2.351563 5.222656-5.226563v-25.132812c0-2.871094-2.351562-5.222657-5.222656-5.222657zm0 0" fill="#76ffd9"/><path d="m119.722656 440.363281v-25.132812c0-2.871094 2.351563-5.222657 5.222656-5.222657h-40.007812c-2.871094 0-5.222656 2.351563-5.222656 5.222657v25.132812c0 2.875 2.351562 5.226563 5.222656 5.226563h40.007812c-2.871093 0-5.222656-2.351563-5.222656-5.226563zm0 0" fill="#5de0bf"/><g fill="#adb5bd"><path d="m424.691406 115.292969h-46.617187c-4.328125 0-7.835938 3.507812-7.835938 7.835937s3.507813 7.835938 7.835938 7.835938h46.617187c4.328125 0 7.835938-3.507813 7.835938-7.835938s-3.507813-7.835937-7.835938-7.835937zm0 0"/><path d="m424.691406 136.191406h-46.617187c-4.328125 0-7.835938 3.507813-7.835938 7.835938s3.507813 7.835937 7.835938 7.835937h46.617187c4.328125 0 7.835938-3.507812 7.835938-7.835937s-3.507813-7.835938-7.835938-7.835938zm0 0"/><path d="m424.691406 157.085938h-46.617187c-4.328125 0-7.835938 3.507812-7.835938 7.839843 0 4.328125 3.507813 7.835938 7.835938 7.835938h46.617187c4.328125 0 7.835938-3.507813 7.835938-7.835938s-3.507813-7.839843-7.835938-7.839843zm0 0"/><path d="m363.738281 117.582031c-1.460937-1.449219-3.476562-2.285156-5.539062-2.285156-2.066407 0-4.085938.835937-5.546875 2.285156-1.453125 1.464844-2.289063 3.480469-2.289063 5.550781 0 2.058594.835938 4.074219 2.289063 5.539063 1.460937 1.460937 3.480468 2.296875 5.546875 2.296875 2.0625 0 4.078125-.835938 5.539062-2.296875 1.464844-1.464844 2.300781-3.480469 2.300781-5.539063 0-2.070312-.835937-4.085937-2.300781-5.550781zm0 0"/><path d="m363.738281 138.480469c-1.460937-1.453125-3.476562-2.285157-5.539062-2.285157-2.066407 0-4.085938.835938-5.546875 2.285157-1.453125 1.464843-2.289063 3.480469-2.289063 5.550781 0 2.058594.835938 4.074219 2.289063 5.539062 1.460937 1.449219 3.480468 2.296876 5.546875 2.296876 2.0625 0 4.078125-.847657 5.539062-2.296876 1.464844-1.464843 2.300781-3.480468 2.300781-5.539062 0-2.070312-.835937-4.085938-2.300781-5.550781zm0 0"/><path d="m358.203125 157.089844c-2.070313 0-4.085937.835937-5.550781 2.289062-1.453125 1.460938-2.289063 3.480469-2.289063 5.550782 0 2.054687.835938 4.070312 2.289063 5.535156 1.460937 1.460937 3.480468 2.300781 5.550781 2.300781 2.058594 0 4.074219-.839844 5.535156-2.300781 1.464844-1.460938 2.300781-3.480469 2.300781-5.535156 0-2.070313-.835937-4.085938-2.300781-5.550782-1.460937-1.453125-3.476562-2.289062-5.535156-2.289062zm0 0"/></g><path d="m364.898438 310.523438c-4.328126 0-7.835938 3.507812-7.835938 7.835937v1.078125c0 4.328125 3.507812 7.835938 7.835938 7.835938 4.328124 0 7.835937-3.507813 7.835937-7.835938v-1.078125c0-4.328125-3.507813-7.835937-7.835937-7.835937zm0 0" fill="#fff"/><path d="m397.246094 310.523438c-4.328125 0-7.835938 3.507812-7.835938 7.835937v1.078125c0 4.328125 3.507813 7.835938 7.835938 7.835938s7.835937-3.507813 7.835937-7.835938v-1.078125c0-4.328125-3.507812-7.835937-7.835937-7.835937zm0 0" fill="#fff"/><path d="m429.589844 310.523438c-4.328125 0-7.835938 3.507812-7.835938 7.835937v1.078125c0 4.328125 3.507813 7.835938 7.835938 7.835938 4.332031 0 7.835937-3.507813 7.835937-7.835938v-1.078125c0-4.328125-3.507812-7.835937-7.835937-7.835937zm0 0" fill="#fff"/><path d="m461.9375 310.523438c-4.328125 0-7.835938 3.507812-7.835938 7.835937v1.078125c0 4.328125 3.507813 7.835938 7.835938 7.835938s7.835938-3.507813 7.835938-7.835938v-1.078125c0-4.328125-3.507813-7.835937-7.835938-7.835937zm0 0" fill="#fff"/><path d="m493.714844 0h-475.429688c-10.082031 0-18.285156 8.203125-18.285156 18.285156v313.613282c0 10.085937 8.203125 18.289062 18.285156 18.289062h161.960938v11.316406c0 7.203125 5.859375 13.0625 13.058594 13.0625h11.191406v27.601563h-119.558594c-7.203125 0-13.058594 5.859375-13.058594 13.0625v25.132812c0 7.203125 5.855469 13.0625 13.058594 13.0625h342.125c7.203125 0 13.058594-5.859375 13.058594-13.0625v-25.132812c0-7.203125-5.855469-13.0625-13.058594-13.0625h-31.046875c-4.328125 0-7.835937 3.507812-7.835937 7.839843 0 4.328126 3.507812 7.835938 7.835937 7.835938h28.433594v19.90625h-336.898438v-19.90625h270.847657c4.332031 0 7.839843-3.507812 7.839843-7.835938 0-4.332031-3.507812-7.839843-7.839843-7.839843h-50.894532v-27.601563h11.191406c7.199219 0 13.058594-5.859375 13.058594-13.0625v-11.316406h161.960938c10.082031 0 18.285156-8.203125 18.285156-18.289062v-313.613282c0-10.082031-8.203125-18.285156-18.285156-18.285156zm-201.882813 402.167969h-71.664062v-27.601563h71.664062zm24.25-43.277344h-120.164062v-8.703125h120.164062zm180.246094-26.992187c0 1.417968-1.199219 2.613281-2.613281 2.613281h-475.429688c-1.414062 0-2.613281-1.195313-2.613281-2.613281v-313.613282c0-1.414062 1.199219-2.613281 2.613281-2.613281h475.429688c1.414062 0 2.613281 1.199219 2.613281 2.613281zm0 0" fill="#434c54"/></svg>